<?xml version="1.0"?>
<svg xmlns="http://www.w3.org/2000/svg" width="512" height="512" viewBox="0 0 128 128"><g><path d="M118.5,30.84V11.455a1.75,1.75,0,0,0-1.75-1.75h-8.109a1.763,1.763,0,0,0-.672.134L60.15,29.721h-41.4A6.756,6.756,0,0,0,12,36.377H9.75A9.761,9.761,0,0,0,0,46.127V56.752A9.761,9.761,0,0,0,9.75,66.5H12a6.756,6.756,0,0,0,6.746,6.656h5.947l-8.187,36.926A6.9,6.9,0,0,0,23.1,118.3h9.257a6.71,6.71,0,0,0,6.59-5.289l3.865-17.43h17.1a1.746,1.746,0,0,0,1.237-.513l15.18-15.18,31.645,13.158a1.763,1.763,0,0,0,.672.134h8.109a1.75,1.75,0,0,0,1.75-1.75V72.039a11.258,11.258,0,0,0,9.5-11.1v-19A11.257,11.257,0,0,0,118.5,30.84ZM60.15,73.158l4.687,1.949-8.969,8.969H45.359l2.42-10.918ZM3.5,56.752V46.127a6.257,6.257,0,0,1,6.25-6.25H12V63H9.75A6.257,6.257,0,0,1,3.5,56.752Zm12,9.656V36.471a3.254,3.254,0,0,1,3.25-3.25h40V69.658h-40A3.254,3.254,0,0,1,15.5,66.408Zm20.03,45.84a3.23,3.23,0,0,1-3.173,2.547H23.1a3.354,3.354,0,0,1-3.173-3.953l8.355-37.684H44.194Zm37.3-33.818L59.182,92.076h-15.6l1-4.5h12.01a1.748,1.748,0,0,0,1.238-.513l10.5-10.5,4.477,1.861ZM115,89.675h-6.01L62.25,70.24v-37.6l46.74-19.434H115Zm9.5-28.736a7.765,7.765,0,0,1-6,7.551v-34.1a7.764,7.764,0,0,1,6,7.55Z"/><path d="M108.641,19.46a1.75,1.75,0,0,0-1.75,1.75V81.67a1.75,1.75,0,0,0,3.5,0V21.21A1.75,1.75,0,0,0,108.641,19.46Z"/></g></svg>
