<?xml version="1.0" encoding="iso-8859-1"?>
<!-- Generator: Adobe Illustrator 19.0.0, SVG Export Plug-In . SVG Version: 6.00 Build 0)  -->
<svg version="1.1" id="Capa_1" xmlns="http://www.w3.org/2000/svg" xmlns:xlink="http://www.w3.org/1999/xlink" x="0px" y="0px"
	 viewBox="0 0 480 480" style="enable-background:new 0 0 480 480;" xml:space="preserve">
<g>
	<g>
		<path d="M464,220V102.232L352,64.896V220h-16V44H144v176h-16v-96h-16V68H80V20H64v48H32v56H16v96H0v224h144v16h192v-16h144V220
			H464z M48,84h48v40H48V84z M32,140h80v80H32V140z M144,428H16V236h128V428z M256,444h-32v-80h32V444z M320,444h-48v-96h-64v96h-48
			V60h160V444z M368,87.104l80,26.664V220h-16v-96h-16v96h-16v-96h-16v96h-16V87.104z M416,428h-32v-32h32V428z M464,428h-32v-48
			h-64v48h-32V236h128V428z"/>
	</g>
</g>
<g>
	<g>
		<rect x="32" y="252" width="96" height="16"/>
	</g>
</g>
<g>
	<g>
		<rect x="32" y="284" width="96" height="16"/>
	</g>
</g>
<g>
	<g>
		<rect x="32" y="316" width="96" height="16"/>
	</g>
</g>
<g>
	<g>
		<rect x="32" y="348" width="96" height="16"/>
	</g>
</g>
<g>
	<g>
		<path d="M184,92v48h48V92H184z M216,124h-16v-16h16V124z"/>
	</g>
</g>
<g>
	<g>
		<path d="M248,92v48h48V92H248z M280,124h-16v-16h16V124z"/>
	</g>
</g>
<g>
	<g>
		<path d="M184,156v48h48v-48H184z M216,188h-16v-16h16V188z"/>
	</g>
</g>
<g>
	<g>
		<path d="M248,156v48h48v-48H248z M280,188h-16v-16h16V188z"/>
	</g>
</g>
<g>
	<g>
		<path d="M184,220v48h48v-48H184z M216,252h-16v-16h16V252z"/>
	</g>
</g>
<g>
	<g>
		<path d="M248,220v48h48v-48H248z M280,252h-16v-16h16V252z"/>
	</g>
</g>
<g>
	<g>
		<path d="M184,284v48h48v-48H184z M216,316h-16v-16h16V316z"/>
	</g>
</g>
<g>
	<g>
		<path d="M248,284v48h48v-48H248z M280,316h-16v-16h16V316z"/>
	</g>
</g>
<g>
	<g>
		<rect x="352" y="252" width="16" height="16"/>
	</g>
</g>
<g>
	<g>
		<rect x="384" y="252" width="32" height="16"/>
	</g>
</g>
<g>
	<g>
		<rect x="432" y="252" width="16" height="16"/>
	</g>
</g>
<g>
	<g>
		<rect x="352" y="284" width="16" height="16"/>
	</g>
</g>
<g>
	<g>
		<rect x="384" y="284" width="32" height="16"/>
	</g>
</g>
<g>
	<g>
		<rect x="432" y="284" width="16" height="16"/>
	</g>
</g>
<g>
	<g>
		<rect x="352" y="316" width="16" height="16"/>
	</g>
</g>
<g>
	<g>
		<rect x="384" y="316" width="32" height="16"/>
	</g>
</g>
<g>
	<g>
		<rect x="432" y="316" width="16" height="16"/>
	</g>
</g>
<g>
	<g>
		<rect x="352" y="348" width="16" height="16"/>
	</g>
</g>
<g>
	<g>
		<rect x="384" y="348" width="32" height="16"/>
	</g>
</g>
<g>
	<g>
		<rect x="432" y="348" width="16" height="16"/>
	</g>
</g>
<g>
</g>
<g>
</g>
<g>
</g>
<g>
</g>
<g>
</g>
<g>
</g>
<g>
</g>
<g>
</g>
<g>
</g>
<g>
</g>
<g>
</g>
<g>
</g>
<g>
</g>
<g>
</g>
<g>
</g>
</svg>
